<svg version="1.0" xmlns="http://www.w3.org/2000/svg"
 width="70" height="30" viewBox="0 0 745.000000 251.000000"
 preserveAspectRatio="xMidYMid meet">

<g transform="translate(0.000000,251.000000) scale(0.100000,-0.100000)"
fill="#000000" stroke="none">
<path d="M130 2380 c-20 -20 -20 -33 -20 -893 0 -683 3 -877 12 -889 7 -9 63
-43 123 -75 61 -33 232 -127 380 -208 337 -184 366 -200 441 -241 33 -19 71
-34 83 -34 12 0 144 67 294 149 150 81 373 203 497 271 124 67 231 129 238
138 9 12 12 206 12 893 l0 878 -22 15 c-20 14 -133 16 -1020 16 -985 0 -998 0
-1018 -20z m1940 -907 l-1 -808 -117 -62 c-64 -35 -193 -105 -287 -156 -333
-183 -507 -277 -515 -277 -7 0 -505 269 -795 430 l-120 66 -3 807 -2 807 920
0 920 0 0 -807z"/>
<path d="M700 2040 l0 -60 535 0 535 0 0 -235 0 -236 58 3 57 3 3 270 c2 261
2 272 -18 293 l-21 22 -574 0 -575 0 0 -60z"/>
<path d="M430 1780 c-19 -19 -20 -33 -20 -503 0 -371 3 -487 13 -500 20 -26
699 -400 727 -400 28 0 708 375 728 401 9 11 12 73 12 224 l0 208 -60 0 -60 0
0 -182 -1 -183 -303 -168 c-167 -92 -309 -167 -317 -167 -8 0 -97 46 -199 103
-102 56 -238 132 -302 167 l-118 65 0 418 0 417 460 0 460 0 0 60 0 60 -500 0
c-487 0 -501 -1 -520 -20z"/>
<path d="M710 1176 c0 -102 4 -196 9 -209 7 -18 63 -54 208 -136 109 -61 208
-111 221 -111 20 0 335 166 386 203 17 13 17 15 -8 65 l-27 52 -42 -24 c-141
-81 -298 -166 -308 -166 -8 0 -241 126 -301 164 -16 10 -18 30 -18 178 l0 168
-60 0 -60 0 0 -184z"/>
<path d="M3355 1894 c-165 -37 -309 -149 -377 -294 -46 -98 -59 -154 -59 -261
0 -167 51 -289 166 -404 116 -117 271 -173 436 -161 172 14 300 79 400 205
l39 49 -32 20 c-18 11 -60 34 -93 52 l-60 32 -56 -55 c-70 -68 -132 -92 -239
-91 -87 0 -138 14 -200 56 -158 105 -198 349 -85 514 77 112 226 165 374 133
60 -13 161 -75 180 -112 8 -15 19 -27 24 -27 18 0 177 95 177 106 0 10 -62 88
-90 112 -48 42 -142 95 -199 112 -89 28 -218 34 -306 14z"/>
<path d="M4240 1346 c0 -370 3 -566 10 -567 6 0 24 -1 40 -1 17 0 64 1 105 1
l75 1 0 195 0 196 86 -3 86 -3 108 -185 c60 -102 114 -191 120 -198 9 -10 41
-13 126 -11 63 2 114 4 114 6 0 2 -86 149 -204 347 -26 43 -45 80 -44 81 2 1
19 11 38 23 56 34 117 103 147 167 24 51 28 73 28 145 0 76 -4 93 -32 150 -42
84 -99 142 -181 182 l-66 33 -278 3 -278 3 0 -565z m530 336 c101 -50 106
-232 7 -292 -28 -17 -51 -20 -169 -20 l-138 0 0 165 0 165 133 0 c106 0 139
-4 167 -18z"/>
<path d="M5400 1340 l0 -570 350 0 350 0 0 110 0 110 -240 0 -240 0 0 125 0
125 214 0 215 0 3 88 c2 48 1 97 -1 110 l-3 22 -214 0 -214 0 0 120 0 120 240
0 240 0 0 105 0 105 -350 0 -350 0 0 -570z"/>
<path d="M6390 1345 l0 -565 268 0 c287 0 326 5 427 55 82 40 150 99 201 176
225 339 54 807 -324 888 -32 6 -157 11 -312 11 l-260 0 0 -565z m603 317 c122
-60 183 -179 175 -341 -7 -145 -69 -245 -187 -300 -51 -23 -69 -26 -213 -29
l-158 -4 0 357 0 357 158 -3 c155 -4 159 -5 225 -37z"/>
</g>
</svg>
