<svg version="1.0" xmlns="http://www.w3.org/2000/svg"
 width="404" height="247" viewBox="0 0 404.000000 247.000000"
 preserveAspectRatio="xMidYMid meet">

<g transform="translate(0.000000,247.000000) scale(0.100000,-0.100000)"
fill="#000000" stroke="none">
<path d="M0 1235 l0 -1235 2020 0 2020 0 0 1235 0 1235 -2020 0 -2020 0 0
-1235z m2354 709 c3 -9 6 -161 6 -339 0 -262 -3 -325 -14 -334 -18 -15 -377
-211 -387 -211 -9 0 -368 196 -386 212 -18 15 -19 658 -1 676 9 9 110 12 394
12 339 0 383 -2 388 -16z m-650 -1104 c21 -21 21 -21 2 -35 -16 -12 -22 -12
-40 0 -28 20 -52 19 -76 -5 -56 -56 10 -138 80 -100 22 12 50 3 50 -16 0 -20
-53 -44 -96 -44 -51 0 -104 53 -104 104 0 78 57 131 129 121 19 -2 44 -14 55
-25z m226 5 c25 -23 27 -81 3 -108 -17 -18 -16 -21 5 -58 l23 -39 -29 0 c-23
0 -33 7 -48 35 -10 19 -24 35 -31 35 -8 0 -13 -13 -13 -35 0 -32 -2 -35 -30
-35 l-30 0 0 108 c0 60 3 112 8 116 14 15 120 1 142 -19z m230 1 c0 -23 -5
-25 -47 -28 -36 -2 -49 -7 -51 -20 -3 -15 4 -18 42 -18 42 0 46 -2 46 -25 0
-23 -4 -25 -45 -25 -38 0 -45 -3 -45 -20 0 -17 7 -20 50 -20 47 0 50 -2 50
-25 0 -24 -2 -25 -75 -25 l-75 0 0 115 0 115 75 0 c73 0 75 -1 75 -24z m184
10 c45 -19 66 -52 66 -104 0 -37 -6 -50 -34 -78 -31 -31 -39 -34 -95 -34 l-61
0 0 115 0 115 45 0 c25 0 61 -6 79 -14z"/>
<path d="M1612 1604 l3 -306 172 -95 172 -95 173 95 173 95 3 306 2 306 -350
0 -350 0 2 -306z m628 126 l0 -110 -25 0 c-25 0 -25 1 -25 90 l0 90 -200 0
c-193 0 -200 1 -200 20 0 19 7 20 225 20 l225 0 0 -110z m-170 -25 l0 -25
-172 0 -173 0 2 -157 2 -158 63 -35 c35 -20 86 -49 115 -64 l52 -29 115 64
115 63 3 71 c3 64 5 70 26 73 22 3 23 2 20 -84 l-3 -87 -130 -73 c-71 -40
-137 -73 -145 -73 -8 0 -73 33 -145 73 l-130 73 -3 184 c-1 101 0 189 2 196 4
10 50 13 196 13 l190 0 0 -25z m-230 -209 l5 -68 57 -31 56 -32 66 35 c57 30
68 33 76 20 5 -8 10 -18 10 -21 0 -10 -135 -79 -154 -79 -18 0 -120 54 -148
78 -14 12 -18 31 -18 87 0 75 4 88 30 83 11 -2 16 -20 20 -72z"/>
<path d="M1840 790 c0 -28 3 -31 28 -28 21 2 27 8 27 28 0 20 -6 26 -27 28
-25 3 -28 0 -28 -28z"/>
<path d="M2270 755 l0 -65 29 0 c39 0 61 24 61 65 0 38 -28 65 -67 65 -22 0
-23 -4 -23 -65z"/>
</g>
</svg>
